<svg width="531" height="512" viewBox="0 0 531 512" fill="none" xmlns="http://www.w3.org/2000/svg">
<g clip-path="url(#clip0_1333_82)">
<path d="M503 256.5C503 387.042 396.741 493 265.5 493C134.259 493 28 387.042 28 256.5C28 125.958 134.259 20 265.5 20C396.741 20 503 125.958 503 256.5Z" fill="#292929" stroke="#292929" stroke-width="40"/>
<path d="M130 69C71.0538 110.751 35 179.496 35 257.227C35 334.958 73.4764 403.702 132.423 445.454M401.5 69C460.446 110.751 496 179.496 496 257.227C496 334.737 457.742 403.311 399.08 445.097" stroke="#1C1C1C" stroke-width="50"/>
<path d="M146.433 164.5L192.433 125V347L146.433 386.5V164.5Z" fill="#E835E0"/>
<path d="M338.433 125L384.433 164V387L338.433 347.5V125Z" fill="#E835E0"/>
<path d="M264.933 210.5L195.433 128V195.5L242.933 255H288.433L335.433 195.5V128L264.933 210.5Z" fill="#E835E0"/>
<path d="M143.11 220.526L115.933 191.5L142.65 167L143.11 220.526Z" fill="#EEEEEE"/>
<path d="M415.433 191.541L388.691 220.5L388.691 168.054L415.433 191.541Z" fill="#EEEEEE"/>
</g>
<defs>
<clipPath id="clip0_1333_82">
<rect width="531" height="512" fill="white"/>
</clipPath>
</defs>
</svg>
