<?xml version="1.0" standalone="no"?>
<!DOCTYPE svg PUBLIC "-//W3C//DTD SVG 20010904//EN"
 "http://www.w3.org/TR/2001/REC-SVG-20010904/DTD/svg10.dtd">
<svg version="1.0" xmlns="http://www.w3.org/2000/svg"
 width="531.000000pt" height="531.000000pt" viewBox="0 0 531.000000 531.000000"
 preserveAspectRatio="xMidYMid meet">
<metadata>
Created by potrace 1.14, written by Peter Selinger 2001-2017
</metadata>
<g transform="translate(0.000000,531.000000) scale(0.100000,-0.100000)"
fill="#000000" stroke="none">
<path d="M2468 5215 c-1 -2 -39 -6 -83 -9 -44 -4 -87 -9 -95 -11 -8 -2 -33 -6
-55 -10 -22 -3 -47 -7 -55 -10 -8 -2 -32 -6 -52 -9 -53 -8 -178 -42 -298 -83
-164 -54 -282 -107 -465 -208 -96 -53 -275 -179 -390 -275 -48 -40 -246 -241
-290 -294 -22 -27 -48 -56 -57 -64 -10 -9 -18 -22 -18 -28 0 -6 -6 -17 -14
-24 -33 -26 -173 -246 -230 -360 -15 -30 -31 -62 -36 -70 -20 -33 -126 -300
-135 -340 -2 -8 -13 -51 -26 -95 -12 -44 -23 -89 -25 -100 -1 -11 -3 -20 -4
-20 -2 0 -5 -14 -14 -65 -11 -59 -15 -83 -22 -145 -3 -33 -8 -63 -11 -68 -3
-5 -13 -226 -15 -322 0 -33 20 -266 27 -309 35 -210 56 -297 103 -441 27 -80
39 -112 71 -190 66 -158 201 -399 273 -490 4 -5 33 -43 64 -84 114 -150 283
-322 434 -439 58 -45 113 -88 123 -97 9 -8 19 -15 23 -15 3 0 31 -17 62 -38
89 -60 354 -202 377 -202 3 0 24 -9 48 -20 49 -22 261 -93 327 -108 55 -13
102 -24 115 -28 11 -2 42 -8 99 -19 79 -15 128 -18 426 -19 269 -1 377 4 430
19 8 3 32 7 54 9 21 3 46 8 56 11 10 3 27 8 38 10 47 9 220 56 252 69 19 7 62
24 95 36 128 47 361 162 443 218 9 6 42 28 72 48 220 147 446 358 604 566 47
62 90 118 94 123 7 9 73 116 97 157 6 10 30 57 55 105 25 48 49 91 53 94 5 3
9 10 9 15 0 11 8 30 41 109 49 116 101 284 123 395 3 14 9 41 14 60 5 19 11
55 14 80 4 25 8 56 11 70 15 87 18 148 19 345 0 194 -6 311 -20 380 -2 11 -7
36 -10 55 -11 71 -14 86 -23 118 -5 18 -10 35 -10 37 -3 27 -70 265 -79 280
-4 6 -7 15 -8 20 -8 47 -178 400 -209 435 -8 9 -15 20 -15 24 0 18 -167 249
-240 330 -124 140 -248 257 -380 359 -43 33 -97 73 -111 82 -9 6 -41 26 -70
47 -148 100 -393 216 -594 281 -269 87 -505 123 -802 125 -99 0 -183 -1 -185
-3z"/>
</g>
</svg>
